<?xml version="1.0" encoding="UTF-8" standalone="no"?>
<!DOCTYPE svg PUBLIC "-//W3C//DTD SVG 1.1//EN"
 "http://www.w3.org/Graphics/SVG/1.1/DTD/svg11.dtd">
<!-- Generated by graphviz version 2.40.1 (20161225.0304)
 -->
<!-- Title: controllers_diagram Pages: 1 -->
<svg width="436pt" height="551pt"
 viewBox="0.00 0.00 436.38 551.00" xmlns="http://www.w3.org/2000/svg" xmlns:xlink="http://www.w3.org/1999/xlink">
<g id="graph0" class="graph" transform="scale(1 1) rotate(0) translate(4 547)">
<title>controllers_diagram</title>
<polygon fill="transparent" stroke="transparent" points="-4,4 -4,-547 432.3755,-547 432.3755,4 -4,4"/>
<!-- _diagram_info -->
<g id="node1" class="node">
<title>_diagram_info</title>
<text text-anchor="start" x="229" y="-415.6" font-family="Times,serif" font-size="13.00" fill="#000000">Controllers diagram</text>
<text text-anchor="start" x="229" y="-402.6" font-family="Times,serif" font-size="13.00" fill="#000000">Date: Aug 09 2017 &#45; 19:36</text>
<text text-anchor="start" x="229" y="-389.6" font-family="Times,serif" font-size="13.00" fill="#000000">Migration version: 20170809232420</text>
<text text-anchor="start" x="229" y="-376.6" font-family="Times,serif" font-size="13.00" fill="#000000">Generated by RailRoady 1.5.3</text>
<text text-anchor="start" x="229" y="-363.6" font-family="Times,serif" font-size="13.00" fill="#000000">http://railroady.prestonlee.com</text>
</g>
<!-- ApplicationController -->
<g id="node2" class="node">
<title>ApplicationController</title>
<path fill="none" stroke="#000000" d="M165,-.5C165,-.5 280.6416,-.5 280.6416,-.5 286.6416,-.5 292.6416,-6.5 292.6416,-12.5 292.6416,-12.5 292.6416,-80.5 292.6416,-80.5 292.6416,-86.5 286.6416,-92.5 280.6416,-92.5 280.6416,-92.5 165,-92.5 165,-92.5 159,-92.5 153,-86.5 153,-80.5 153,-80.5 153,-12.5 153,-12.5 153,-6.5 159,-.5 165,-.5"/>
<text text-anchor="middle" x="222.8208" y="-77.3" font-family="Times,serif" font-size="14.00" fill="#000000">ApplicationController</text>
<polyline fill="none" stroke="#000000" points="153,-70.5 292.6416,-70.5 "/>
<polyline fill="none" stroke="#000000" points="153,-46.5 292.6416,-46.5 "/>
<polyline fill="none" stroke="#000000" points="153,-22.5 292.6416,-22.5 "/>
<text text-anchor="start" x="161" y="-7.3" font-family="Times,serif" font-size="14.00" fill="#000000">_layout</text>
</g>
<!-- GenresController -->
<g id="node3" class="node">
<title>GenresController</title>
<path fill="none" stroke="#000000" d="M12,-102.5C12,-102.5 101.1934,-102.5 101.1934,-102.5 107.1934,-102.5 113.1934,-108.5 113.1934,-114.5 113.1934,-114.5 113.1934,-292.5 113.1934,-292.5 113.1934,-298.5 107.1934,-304.5 101.1934,-304.5 101.1934,-304.5 12,-304.5 12,-304.5 6,-304.5 0,-298.5 0,-292.5 0,-292.5 0,-114.5 0,-114.5 0,-108.5 6,-102.5 12,-102.5"/>
<text text-anchor="middle" x="56.5967" y="-289.3" font-family="Times,serif" font-size="14.00" fill="#000000">GenresController</text>
<polyline fill="none" stroke="#000000" points="0,-282.5 113.1934,-282.5 "/>
<text text-anchor="start" x="8" y="-267.3" font-family="Times,serif" font-size="14.00" fill="#000000">index</text>
<text text-anchor="start" x="8" y="-253.3" font-family="Times,serif" font-size="14.00" fill="#000000">destroy</text>
<text text-anchor="start" x="8" y="-239.3" font-family="Times,serif" font-size="14.00" fill="#000000">edit</text>
<text text-anchor="start" x="8" y="-225.3" font-family="Times,serif" font-size="14.00" fill="#000000">create</text>
<text text-anchor="start" x="8" y="-211.3" font-family="Times,serif" font-size="14.00" fill="#000000">new</text>
<text text-anchor="start" x="8" y="-197.3" font-family="Times,serif" font-size="14.00" fill="#000000">show</text>
<text text-anchor="start" x="8" y="-183.3" font-family="Times,serif" font-size="14.00" fill="#000000">update</text>
<polyline fill="none" stroke="#000000" points="0,-176.5 113.1934,-176.5 "/>
<polyline fill="none" stroke="#000000" points="0,-152.5 113.1934,-152.5 "/>
<text text-anchor="start" x="8" y="-137.3" font-family="Times,serif" font-size="14.00" fill="#000000">_layout</text>
<text text-anchor="start" x="8" y="-123.3" font-family="Times,serif" font-size="14.00" fill="#000000">genre_params</text>
<text text-anchor="start" x="8" y="-109.3" font-family="Times,serif" font-size="14.00" fill="#000000">set_genre</text>
</g>
<!-- SongsController -->
<g id="node4" class="node">
<title>SongsController</title>
<path fill="none" stroke="#000000" d="M165,-119.5C165,-119.5 248.7793,-119.5 248.7793,-119.5 254.7793,-119.5 260.7793,-125.5 260.7793,-131.5 260.7793,-131.5 260.7793,-309.5 260.7793,-309.5 260.7793,-315.5 254.7793,-321.5 248.7793,-321.5 248.7793,-321.5 165,-321.5 165,-321.5 159,-321.5 153,-315.5 153,-309.5 153,-309.5 153,-131.5 153,-131.5 153,-125.5 159,-119.5 165,-119.5"/>
<text text-anchor="middle" x="206.8896" y="-306.3" font-family="Times,serif" font-size="14.00" fill="#000000">SongsController</text>
<polyline fill="none" stroke="#000000" points="153,-299.5 260.7793,-299.5 "/>
<text text-anchor="start" x="161" y="-284.3" font-family="Times,serif" font-size="14.00" fill="#000000">index</text>
<text text-anchor="start" x="161" y="-270.3" font-family="Times,serif" font-size="14.00" fill="#000000">destroy</text>
<text text-anchor="start" x="161" y="-256.3" font-family="Times,serif" font-size="14.00" fill="#000000">edit</text>
<text text-anchor="start" x="161" y="-242.3" font-family="Times,serif" font-size="14.00" fill="#000000">create</text>
<text text-anchor="start" x="161" y="-228.3" font-family="Times,serif" font-size="14.00" fill="#000000">new</text>
<text text-anchor="start" x="161" y="-214.3" font-family="Times,serif" font-size="14.00" fill="#000000">show</text>
<text text-anchor="start" x="161" y="-200.3" font-family="Times,serif" font-size="14.00" fill="#000000">update</text>
<polyline fill="none" stroke="#000000" points="153,-193.5 260.7793,-193.5 "/>
<polyline fill="none" stroke="#000000" points="153,-169.5 260.7793,-169.5 "/>
<text text-anchor="start" x="161" y="-154.3" font-family="Times,serif" font-size="14.00" fill="#000000">_layout</text>
<text text-anchor="start" x="161" y="-140.3" font-family="Times,serif" font-size="14.00" fill="#000000">set_song</text>
<text text-anchor="start" x="161" y="-126.3" font-family="Times,serif" font-size="14.00" fill="#000000">song_params</text>
</g>
<!-- UsersController -->
<g id="node5" class="node">
<title>UsersController</title>
<path fill="none" stroke="#000000" d="M29,-340.5C29,-340.5 110.4277,-340.5 110.4277,-340.5 116.4277,-340.5 122.4277,-346.5 122.4277,-352.5 122.4277,-352.5 122.4277,-530.5 122.4277,-530.5 122.4277,-536.5 116.4277,-542.5 110.4277,-542.5 110.4277,-542.5 29,-542.5 29,-542.5 23,-542.5 17,-536.5 17,-530.5 17,-530.5 17,-352.5 17,-352.5 17,-346.5 23,-340.5 29,-340.5"/>
<text text-anchor="middle" x="69.7139" y="-527.3" font-family="Times,serif" font-size="14.00" fill="#000000">UsersController</text>
<polyline fill="none" stroke="#000000" points="17,-520.5 122.4277,-520.5 "/>
<text text-anchor="start" x="25" y="-505.3" font-family="Times,serif" font-size="14.00" fill="#000000">index</text>
<text text-anchor="start" x="25" y="-491.3" font-family="Times,serif" font-size="14.00" fill="#000000">destroy</text>
<text text-anchor="start" x="25" y="-477.3" font-family="Times,serif" font-size="14.00" fill="#000000">edit</text>
<text text-anchor="start" x="25" y="-463.3" font-family="Times,serif" font-size="14.00" fill="#000000">create</text>
<text text-anchor="start" x="25" y="-449.3" font-family="Times,serif" font-size="14.00" fill="#000000">new</text>
<text text-anchor="start" x="25" y="-435.3" font-family="Times,serif" font-size="14.00" fill="#000000">show</text>
<text text-anchor="start" x="25" y="-421.3" font-family="Times,serif" font-size="14.00" fill="#000000">update</text>
<polyline fill="none" stroke="#000000" points="17,-414.5 122.4277,-414.5 "/>
<polyline fill="none" stroke="#000000" points="17,-390.5 122.4277,-390.5 "/>
<text text-anchor="start" x="25" y="-375.3" font-family="Times,serif" font-size="14.00" fill="#000000">_layout</text>
<text text-anchor="start" x="25" y="-361.3" font-family="Times,serif" font-size="14.00" fill="#000000">set_user</text>
<text text-anchor="start" x="25" y="-347.3" font-family="Times,serif" font-size="14.00" fill="#000000">user_params</text>
</g>
</g>
</svg>
