<?xml version="1.0" encoding="UTF-8" standalone="no"?>
<!DOCTYPE svg PUBLIC "-//W3C//DTD SVG 1.1//EN"
 "http://www.w3.org/Graphics/SVG/1.1/DTD/svg11.dtd">
<!-- Generated by graphviz version 2.40.1 (20161225.0304)
 -->
<!-- Title: models_diagram Pages: 1 -->
<svg width="654pt" height="534pt"
 viewBox="0.00 0.00 653.55 534.00" xmlns="http://www.w3.org/2000/svg" xmlns:xlink="http://www.w3.org/1999/xlink">
<g id="graph0" class="graph" transform="scale(1 1) rotate(0) translate(4 530)">
<title>models_diagram</title>
<polygon fill="transparent" stroke="transparent" points="-4,4 -4,-530 649.55,-530 649.55,4 -4,4"/>
<!-- _diagram_info -->
<g id="node1" class="node">
<title>_diagram_info</title>
<text text-anchor="start" x="8" y="-504.6" font-family="Times,serif" font-size="13.00" fill="#000000">Models diagram</text>
<text text-anchor="start" x="8" y="-491.6" font-family="Times,serif" font-size="13.00" fill="#000000">Date: Aug 09 2017 &#45; 19:36</text>
<text text-anchor="start" x="8" y="-478.6" font-family="Times,serif" font-size="13.00" fill="#000000">Migration version: 20170809232420</text>
<text text-anchor="start" x="8" y="-465.6" font-family="Times,serif" font-size="13.00" fill="#000000">Generated by RailRoady 1.5.3</text>
<text text-anchor="start" x="8" y="-452.6" font-family="Times,serif" font-size="13.00" fill="#000000">http://railroady.prestonlee.com</text>
</g>
<!-- ApplicationRecord -->
<g id="node2" class="node">
<title>ApplicationRecord</title>
<ellipse fill="none" stroke="#000000" cx="302.6877" cy="-482.5" rx="77.2916" ry="18"/>
<text text-anchor="middle" x="302.6877" y="-478.3" font-family="Times,serif" font-size="14.00" fill="#000000">ApplicationRecord</text>
</g>
<!-- Genre -->
<g id="node3" class="node">
<title>Genre</title>
<path fill="none" stroke="#000000" d="M409.8254,-439.5C409.8254,-439.5 633.55,-439.5 633.55,-439.5 639.55,-439.5 645.55,-445.5 645.55,-451.5 645.55,-451.5 645.55,-513.5 645.55,-513.5 645.55,-519.5 639.55,-525.5 633.55,-525.5 633.55,-525.5 409.8254,-525.5 409.8254,-525.5 403.8254,-525.5 397.8254,-519.5 397.8254,-513.5 397.8254,-513.5 397.8254,-451.5 397.8254,-451.5 397.8254,-445.5 403.8254,-439.5 409.8254,-439.5"/>
<text text-anchor="middle" x="521.6877" y="-510.3" font-family="Times,serif" font-size="14.00" fill="#000000">Genre</text>
<polyline fill="none" stroke="#000000" points="397.8254,-503.5 645.55,-503.5 "/>
<text text-anchor="start" x="405.8254" y="-488.3" font-family="Times,serif" font-size="14.00" fill="#000000">id :integer</text>
<text text-anchor="start" x="405.8254" y="-474.3" font-family="Times,serif" font-size="14.00" fill="#000000">name :character varying</text>
<text text-anchor="start" x="405.8254" y="-460.3" font-family="Times,serif" font-size="14.00" fill="#000000">created_at :timestamp without time zone</text>
<text text-anchor="start" x="405.8254" y="-446.3" font-family="Times,serif" font-size="14.00" fill="#000000">updated_at :timestamp without time zone</text>
</g>
<!-- Song -->
<g id="node4" class="node">
<title>Song</title>
<path fill="none" stroke="#000000" d="M409.8254,-288.5C409.8254,-288.5 633.55,-288.5 633.55,-288.5 639.55,-288.5 645.55,-294.5 645.55,-300.5 645.55,-300.5 645.55,-390.5 645.55,-390.5 645.55,-396.5 639.55,-402.5 633.55,-402.5 633.55,-402.5 409.8254,-402.5 409.8254,-402.5 403.8254,-402.5 397.8254,-396.5 397.8254,-390.5 397.8254,-390.5 397.8254,-300.5 397.8254,-300.5 397.8254,-294.5 403.8254,-288.5 409.8254,-288.5"/>
<text text-anchor="middle" x="521.6877" y="-387.3" font-family="Times,serif" font-size="14.00" fill="#000000">Song</text>
<polyline fill="none" stroke="#000000" points="397.8254,-380.5 645.55,-380.5 "/>
<text text-anchor="start" x="405.8254" y="-365.3" font-family="Times,serif" font-size="14.00" fill="#000000">id :integer</text>
<text text-anchor="start" x="405.8254" y="-351.3" font-family="Times,serif" font-size="14.00" fill="#000000">name :character varying</text>
<text text-anchor="start" x="405.8254" y="-337.3" font-family="Times,serif" font-size="14.00" fill="#000000">duration :character varying</text>
<text text-anchor="start" x="405.8254" y="-323.3" font-family="Times,serif" font-size="14.00" fill="#000000">genre_id :integer</text>
<text text-anchor="start" x="405.8254" y="-309.3" font-family="Times,serif" font-size="14.00" fill="#000000">created_at :timestamp without time zone</text>
<text text-anchor="start" x="405.8254" y="-295.3" font-family="Times,serif" font-size="14.00" fill="#000000">updated_at :timestamp without time zone</text>
</g>
<!-- Genre&#45;&gt;Song -->
<g id="edge1" class="edge">
<title>Genre&#45;&gt;Song</title>
<path fill="none" stroke="#f8bc78" d="M521.6877,-431.1132C521.6877,-425.1547 521.6877,-419.0117 521.6877,-412.8805"/>
<ellipse fill="none" stroke="#f8bc78" cx="521.6878" cy="-435.1523" rx="4" ry="4"/>
<polygon fill="#f8bc78" stroke="#f8bc78" points="521.6878,-412.6083 526.1877,-402.6082 521.6878,-407.6083 521.6877,-402.6083 521.6877,-402.6083 521.6877,-402.6083 521.6878,-407.6083 517.1877,-402.6083 521.6878,-412.6083 521.6878,-412.6083"/>
</g>
<!-- User -->
<g id="node5" class="node">
<title>User</title>
<path fill="none" stroke="#000000" d="M333.8254,-151.5C333.8254,-151.5 557.55,-151.5 557.55,-151.5 563.55,-151.5 569.55,-157.5 569.55,-163.5 569.55,-163.5 569.55,-239.5 569.55,-239.5 569.55,-245.5 563.55,-251.5 557.55,-251.5 557.55,-251.5 333.8254,-251.5 333.8254,-251.5 327.8254,-251.5 321.8254,-245.5 321.8254,-239.5 321.8254,-239.5 321.8254,-163.5 321.8254,-163.5 321.8254,-157.5 327.8254,-151.5 333.8254,-151.5"/>
<text text-anchor="middle" x="445.6877" y="-236.3" font-family="Times,serif" font-size="14.00" fill="#000000">User</text>
<polyline fill="none" stroke="#000000" points="321.8254,-229.5 569.55,-229.5 "/>
<text text-anchor="start" x="329.8254" y="-214.3" font-family="Times,serif" font-size="14.00" fill="#000000">id :integer</text>
<text text-anchor="start" x="329.8254" y="-200.3" font-family="Times,serif" font-size="14.00" fill="#000000">name :character varying</text>
<text text-anchor="start" x="329.8254" y="-186.3" font-family="Times,serif" font-size="14.00" fill="#000000">email :character varying</text>
<text text-anchor="start" x="329.8254" y="-172.3" font-family="Times,serif" font-size="14.00" fill="#000000">created_at :timestamp without time zone</text>
<text text-anchor="start" x="329.8254" y="-158.3" font-family="Times,serif" font-size="14.00" fill="#000000">updated_at :timestamp without time zone</text>
</g>
<!-- Song&#45;&gt;User -->
<g id="edge3" class="edge">
<title>Song&#45;&gt;User</title>
<path fill="none" stroke="#d2da63" d="M486.7579,-279.3171C483.4599,-273.0683 480.1309,-266.7608 476.8711,-260.5843"/>
<polygon fill="#d2da63" stroke="#d2da63" points="486.7645,-279.3298 487.4524,-290.2741 489.0983,-283.7517 491.4322,-288.1736 491.4322,-288.1736 491.4322,-288.1736 489.0983,-283.7517 495.4119,-286.0732 486.7645,-279.3298 486.7645,-279.3298"/>
<polygon fill="#d2da63" stroke="#d2da63" points="476.824,-260.4949 476.1361,-249.5506 474.4902,-256.0729 472.1563,-251.651 472.1563,-251.651 472.1563,-251.651 474.4902,-256.0729 468.1766,-253.7514 476.824,-260.4949 476.824,-260.4949"/>
</g>
<!-- UserSong -->
<g id="node6" class="node">
<title>UserSong</title>
<path fill="none" stroke="#000000" d="M409.8254,-.5C409.8254,-.5 633.55,-.5 633.55,-.5 639.55,-.5 645.55,-6.5 645.55,-12.5 645.55,-12.5 645.55,-102.5 645.55,-102.5 645.55,-108.5 639.55,-114.5 633.55,-114.5 633.55,-114.5 409.8254,-114.5 409.8254,-114.5 403.8254,-114.5 397.8254,-108.5 397.8254,-102.5 397.8254,-102.5 397.8254,-12.5 397.8254,-12.5 397.8254,-6.5 403.8254,-.5 409.8254,-.5"/>
<text text-anchor="middle" x="521.6877" y="-99.3" font-family="Times,serif" font-size="14.00" fill="#000000">UserSong</text>
<polyline fill="none" stroke="#000000" points="397.8254,-92.5 645.55,-92.5 "/>
<text text-anchor="start" x="405.8254" y="-77.3" font-family="Times,serif" font-size="14.00" fill="#000000">id :integer</text>
<text text-anchor="start" x="405.8254" y="-63.3" font-family="Times,serif" font-size="14.00" fill="#000000">position :integer</text>
<text text-anchor="start" x="405.8254" y="-49.3" font-family="Times,serif" font-size="14.00" fill="#000000">song_id :integer</text>
<text text-anchor="start" x="405.8254" y="-35.3" font-family="Times,serif" font-size="14.00" fill="#000000">user_id :integer</text>
<text text-anchor="start" x="405.8254" y="-21.3" font-family="Times,serif" font-size="14.00" fill="#000000">created_at :timestamp without time zone</text>
<text text-anchor="start" x="405.8254" y="-7.3" font-family="Times,serif" font-size="14.00" fill="#000000">updated_at :timestamp without time zone</text>
</g>
<!-- Song&#45;&gt;UserSong -->
<g id="edge2" class="edge">
<title>Song&#45;&gt;UserSong</title>
<path fill="none" stroke="#27328f" d="M566.9153,-281.2854C571.7432,-271.8267 575.9029,-261.9181 578.6877,-252 590.8225,-208.7824 590.8225,-194.2176 578.6877,-151 576.094,-141.7625 572.3076,-132.5333 567.8996,-123.6682"/>
<ellipse fill="none" stroke="#27328f" cx="564.9886" cy="-284.8949" rx="4" ry="4"/>
<polygon fill="#27328f" stroke="#27328f" points="567.7698,-123.4218 567.0854,-112.4773 565.4374,-118.9991 563.105,-114.5764 563.105,-114.5764 563.105,-114.5764 565.4374,-118.9991 559.1246,-116.6756 567.7698,-123.4218 567.7698,-123.4218"/>
</g>
<!-- User&#45;&gt;UserSong -->
<g id="edge4" class="edge">
<title>User&#45;&gt;UserSong</title>
<path fill="none" stroke="#61defb" d="M476.0735,-143.9269C479.5322,-137.3737 483.0785,-130.6543 486.5916,-123.9979"/>
<ellipse fill="none" stroke="#61defb" cx="474.1359" cy="-147.5982" rx="4" ry="4"/>
<polygon fill="#61defb" stroke="#61defb" points="486.6826,-123.8255 495.3299,-117.0821 489.0164,-119.4036 491.3502,-114.9817 491.3502,-114.9817 491.3502,-114.9817 489.0164,-119.4036 487.3705,-112.8812 486.6826,-123.8255 486.6826,-123.8255"/>
</g>
</g>
</svg>
