<?xml version="1.0" encoding="UTF-8" standalone="no"?>
<!DOCTYPE svg PUBLIC "-//W3C//DTD SVG 1.1//EN"
 "http://www.w3.org/Graphics/SVG/1.1/DTD/svg11.dtd">
<!-- Generated by graphviz version 2.40.1 (20161225.0304)
 -->
<!-- Title: models_diagram Pages: 1 -->
<svg width="483pt" height="297pt"
 viewBox="0.00 0.00 482.68 297.00" xmlns="http://www.w3.org/2000/svg" xmlns:xlink="http://www.w3.org/1999/xlink">
<g id="graph0" class="graph" transform="scale(1 1) rotate(0) translate(4 293)">
<title>models_diagram</title>
<polygon fill="transparent" stroke="transparent" points="-4,4 -4,-293 478.6762,-293 478.6762,4 -4,4"/>
<!-- _diagram_info -->
<g id="node1" class="node">
<title>_diagram_info</title>
<text text-anchor="start" x="8" y="-274.6" font-family="Times,serif" font-size="13.00" fill="#000000">Models diagram</text>
<text text-anchor="start" x="8" y="-261.6" font-family="Times,serif" font-size="13.00" fill="#000000">Date: Aug 09 2017 &#45; 19:36</text>
<text text-anchor="start" x="8" y="-248.6" font-family="Times,serif" font-size="13.00" fill="#000000">Migration version: 20170809232420</text>
<text text-anchor="start" x="8" y="-235.6" font-family="Times,serif" font-size="13.00" fill="#000000">Generated by RailRoady 1.5.3</text>
<text text-anchor="start" x="8" y="-222.6" font-family="Times,serif" font-size="13.00" fill="#000000">http://railroady.prestonlee.com</text>
</g>
<!-- ApplicationRecord -->
<g id="node2" class="node">
<title>ApplicationRecord</title>
<ellipse fill="none" stroke="#000000" cx="302.6877" cy="-252.5" rx="77.2916" ry="18"/>
<text text-anchor="middle" x="302.6877" y="-248.3" font-family="Times,serif" font-size="14.00" fill="#000000">ApplicationRecord</text>
</g>
<!-- Genre -->
<g id="node3" class="node">
<title>Genre</title>
<ellipse fill="none" stroke="#000000" cx="429.6877" cy="-252.5" rx="31.9219" ry="18"/>
<text text-anchor="middle" x="429.6877" y="-248.3" font-family="Times,serif" font-size="14.00" fill="#000000">Genre</text>
</g>
<!-- Song -->
<g id="node4" class="node">
<title>Song</title>
<ellipse fill="none" stroke="#000000" cx="429.6877" cy="-162" rx="28.0822" ry="18"/>
<text text-anchor="middle" x="429.6877" y="-157.8" font-family="Times,serif" font-size="14.00" fill="#000000">Song</text>
</g>
<!-- Genre&#45;&gt;Song -->
<g id="edge1" class="edge">
<title>Genre&#45;&gt;Song</title>
<path fill="none" stroke="#2ab8ed" d="M429.6877,-225.9687C429.6877,-214.8402 429.6877,-201.878 429.6877,-190.5429"/>
<ellipse fill="none" stroke="#2ab8ed" cx="429.6878" cy="-230.186" rx="4" ry="4"/>
<polygon fill="#2ab8ed" stroke="#2ab8ed" points="429.6878,-190.2868 434.1877,-180.2867 429.6878,-185.2868 429.6877,-180.2868 429.6877,-180.2868 429.6877,-180.2868 429.6878,-185.2868 425.1877,-180.2868 429.6878,-190.2868 429.6878,-190.2868"/>
</g>
<!-- User -->
<g id="node5" class="node">
<title>User</title>
<ellipse fill="none" stroke="#000000" cx="402.6877" cy="-90" rx="27" ry="18"/>
<text text-anchor="middle" x="402.6877" y="-85.8" font-family="Times,serif" font-size="14.00" fill="#000000">User</text>
</g>
<!-- Song&#45;&gt;User -->
<g id="edge3" class="edge">
<title>Song&#45;&gt;User</title>
<path fill="none" stroke="#e90988" d="M419.472,-134.7579C417.3388,-129.0696 415.0893,-123.0707 412.9543,-117.3775"/>
<polygon fill="#e90988" stroke="#e90988" points="419.5023,-134.8389 418.8001,-145.7823 421.2579,-139.5206 423.0136,-144.2022 423.0136,-144.2022 423.0136,-144.2022 421.2579,-139.5206 427.2271,-142.6222 419.5023,-134.8389 419.5023,-134.8389"/>
<polygon fill="#e90988" stroke="#e90988" points="412.7964,-116.9563 413.4986,-106.0129 411.0408,-112.2747 409.2851,-107.593 409.2851,-107.593 409.2851,-107.593 411.0408,-112.2747 405.0716,-109.1731 412.7964,-116.9563 412.7964,-116.9563"/>
</g>
<!-- UserSong -->
<g id="node6" class="node">
<title>UserSong</title>
<ellipse fill="none" stroke="#000000" cx="429.6877" cy="-18" rx="44.9768" ry="18"/>
<text text-anchor="middle" x="429.6877" y="-13.8" font-family="Times,serif" font-size="14.00" fill="#000000">UserSong</text>
</g>
<!-- Song&#45;&gt;UserSong -->
<g id="edge2" class="edge">
<title>Song&#45;&gt;UserSong</title>
<path fill="none" stroke="#da6e26" d="M434.9106,-136.0159C436.4511,-127.1657 437.9273,-117.1878 438.6877,-108 440.0074,-92.0545 440.0074,-87.9455 438.6877,-72 437.9932,-63.6085 436.7016,-54.5578 435.3092,-46.3092"/>
<ellipse fill="none" stroke="#da6e26" cx="434.154" cy="-140.1582" rx="4" ry="4"/>
<polygon fill="#da6e26" stroke="#da6e26" points="435.2973,-46.2423 437.9582,-35.6042 434.4132,-41.3211 433.5291,-36.3999 433.5291,-36.3999 433.5291,-36.3999 434.4132,-41.3211 429.1,-37.1956 435.2973,-46.2423 435.2973,-46.2423"/>
</g>
<!-- User&#45;&gt;UserSong -->
<g id="edge4" class="edge">
<title>User&#45;&gt;UserSong</title>
<path fill="none" stroke="#b81cdb" d="M412.2314,-64.5502C414.5662,-58.3241 417.0742,-51.6362 419.4404,-45.3263"/>
<ellipse fill="none" stroke="#b81cdb" cx="410.7664" cy="-68.4569" rx="4" ry="4"/>
<polygon fill="#b81cdb" stroke="#b81cdb" points="419.4855,-45.2058 427.2103,-37.4226 421.2411,-40.5242 422.9968,-35.8425 422.9968,-35.8425 422.9968,-35.8425 421.2411,-40.5242 418.7833,-34.2625 419.4855,-45.2058 419.4855,-45.2058"/>
</g>
</g>
</svg>
